<?xml version="1.0" standalone="no"?>
<!DOCTYPE svg PUBLIC "-//W3C//DTD SVG 20010904//EN"
 "http://www.w3.org/TR/2001/REC-SVG-20010904/DTD/svg10.dtd">
<svg version="1.0" xmlns="http://www.w3.org/2000/svg"
 width="415.000000pt" height="550.000000pt" viewBox="0 0 415.000000 550.000000"
 preserveAspectRatio="xMidYMid meet">

<g transform="translate(0.000000,550.000000) scale(0.100000,-0.100000)"
fill="#000000" stroke="none">
<path d="M2370 5478 c-199 -18 -400 -76 -566 -163 l-89 -46 60 6 c33 3 98 11
145 16 120 15 416 15 535 0 125 -16 296 -59 400 -100 75 -30 218 -111 230
-131 3 -4 -13 -45 -34 -90 -22 -45 -42 -87 -44 -93 -2 -7 -55 9 -142 42 -161
61 -354 112 -515 137 -139 21 -427 24 -545 5 -291 -46 -536 -149 -737 -310
-84 -67 -200 -195 -238 -262 l-22 -40 101 66 c260 171 512 248 806 248 221 0
401 -36 615 -125 140 -59 360 -186 360 -209 0 -7 -145 -277 -155 -287 -2 -2
-27 15 -56 38 -238 182 -725 257 -1128 174 -238 -49 -529 -186 -776 -364 -196
-142 -408 -348 -506 -492 -61 -89 -57 -93 18 -20 271 266 821 477 1363 523
318 26 659 -29 887 -145 273 -138 483 -389 581 -697 53 -166 66 -261 67 -489
0 -184 -5 -243 -31 -372 -5 -24 -2 -28 16 -28 48 0 233 -45 358 -86 142 -47
300 -122 397 -187 89 -60 201 -172 256 -256 l49 -74 0 41 c0 91 -63 229 -166
364 -110 144 -407 421 -518 485 -9 5 -18 41 -24 93 -6 47 -13 92 -17 100 -4
12 14 22 81 44 340 111 607 352 705 639 15 45 32 105 37 134 l9 52 -95 -100
c-165 -174 -334 -284 -483 -315 -123 -26 -216 0 -302 84 -133 129 -228 428
-214 671 8 134 28 212 82 327 77 161 186 237 335 236 103 0 181 -41 239 -126
92 -133 111 -341 45 -486 -30 -65 -56 -95 -106 -121 -91 -47 -184 -6 -253 111
l-26 45 6 -60 c14 -118 69 -221 146 -272 31 -21 57 -28 106 -31 57 -4 71 -1
128 28 79 40 177 139 228 230 86 155 123 333 114 549 -17 419 -201 685 -613
887 -332 162 -740 237 -1104 202z"/>
<path d="M2960 1994 c-92 -19 -97 -22 -136 -91 -46 -83 -163 -206 -257 -271
-210 -145 -488 -234 -817 -263 -338 -29 -705 40 -879 164 -72 52 -74 52 -47 0
91 -181 300 -314 568 -363 175 -33 456 -29 713 10 73 10 260 45 416 76 231 47
303 57 389 58 98 1 109 -1 164 -29 200 -101 343 -385 296 -586 -30 -127 -126
-244 -254 -309 -92 -46 -190 -53 -251 -18 -89 52 -146 177 -146 323 -1 88 20
159 52 175 53 29 142 -2 179 -62 52 -84 50 -160 -4 -214 -38 -38 -32 -44 46
-44 102 0 143 51 143 180 0 73 -4 93 -28 142 -75 153 -244 206 -461 143 -292
-85 -806 -143 -1169 -133 -200 6 -200 6 -63 -58 171 -79 390 -113 779 -121
l277 -6 0 -34 c0 -60 30 -186 60 -251 l30 -64 -28 6 c-15 3 -94 15 -177 26
-82 12 -205 30 -273 41 -68 11 -128 19 -135 16 -17 -5 169 -141 294 -214 344
-201 654 -259 898 -167 260 98 478 403 498 695 10 156 -51 340 -165 489 -67
89 -202 215 -306 285 -48 33 -85 64 -82 70 2 6 9 37 16 69 l12 59 76 -6 c176
-12 372 -127 627 -369 47 -44 85 -77 85 -74 0 15 -67 137 -113 206 -168 254
-382 433 -587 494 -56 17 -196 28 -240 20z"/>
</g>
</svg>
